<svg width="51" height="50" viewBox="0 0 51 50" fill="none" xmlns="http://www.w3.org/2000/svg">
<path d="M25.5 0.083252C22.1623 0.083252 18.8572 0.740674 15.7735 2.01798C12.6898 3.29529 9.8879 5.16747 7.52774 7.52762C2.76119 12.2942 0.083374 18.759 0.083374 25.4999C0.083374 36.7341 7.37796 46.2653 17.4684 49.6457C18.7392 49.8491 19.1459 49.0612 19.1459 48.3749V44.0795C12.1055 45.6045 10.6059 40.6737 10.6059 40.6737C9.43671 37.7253 7.78463 36.9374 7.78463 36.9374C5.47171 35.3616 7.96254 35.4124 7.96254 35.4124C10.5042 35.5903 11.8513 38.0303 11.8513 38.0303C14.0625 41.8937 17.7988 40.7499 19.2475 40.1399C19.4763 38.4878 20.1371 37.3695 20.8488 36.7341C15.2063 36.0987 9.28421 33.9128 9.28421 24.2291C9.28421 21.4078 10.25 19.1458 11.9021 17.3412C11.648 16.7058 10.7584 14.0624 12.1563 10.6312C12.1563 10.6312 14.2913 9.94492 19.1459 13.2237C21.1538 12.6645 23.3396 12.3849 25.5 12.3849C27.6605 12.3849 29.8463 12.6645 31.8542 13.2237C36.7088 9.94492 38.8438 10.6312 38.8438 10.6312C40.2417 14.0624 39.3521 16.7058 39.098 17.3412C40.75 19.1458 41.7159 21.4078 41.7159 24.2291C41.7159 33.9382 35.7684 36.0733 30.1005 36.7087C31.0155 37.4966 31.8542 39.047 31.8542 41.4108V48.3749C31.8542 49.0612 32.2609 49.8745 33.5571 49.6457C43.6475 46.2399 50.9167 36.7341 50.9167 25.4999C50.9167 22.1622 50.2593 18.8571 48.982 15.7734C47.7047 12.6897 45.8325 9.88778 43.4723 7.52762C41.1122 5.16747 38.3103 3.29529 35.2266 2.01798C32.1429 0.740674 28.8378 0.083252 25.5 0.083252Z" fill="#132E34"/>
</svg>
