<svg width="52" height="52" viewBox="0 0 52 52" fill="none" xmlns="http://www.w3.org/2000/svg">
<path d="M15.15 0.166748H36.85C45.1166 0.166748 51.8333 6.88342 51.8333 15.1501V36.8501C51.8333 40.8239 50.2547 44.635 47.4448 47.4449C44.6349 50.2548 40.8238 51.8334 36.85 51.8334H15.15C6.88329 51.8334 0.166626 45.1168 0.166626 36.8501V15.1501C0.166626 11.1763 1.74522 7.36519 4.55514 4.55527C7.36506 1.74535 11.1761 0.166748 15.15 0.166748ZM14.6333 5.33342C12.1668 5.33342 9.80129 6.31323 8.0572 8.05732C6.31311 9.80141 5.33329 12.1669 5.33329 14.6334V37.3667C5.33329 42.5076 9.49246 46.6668 14.6333 46.6668H37.3666C39.8331 46.6668 42.1986 45.6869 43.9427 43.9428C45.6868 42.1988 46.6666 39.8333 46.6666 37.3667V14.6334C46.6666 9.49258 42.5075 5.33342 37.3666 5.33342H14.6333ZM39.5625 9.20842C40.4189 9.20842 41.2402 9.54863 41.8458 10.1542C42.4514 10.7598 42.7916 11.5812 42.7916 12.4376C42.7916 13.294 42.4514 14.1154 41.8458 14.7209C41.2402 15.3265 40.4189 15.6667 39.5625 15.6667C38.706 15.6667 37.8847 15.3265 37.2791 14.7209C36.6735 14.1154 36.3333 13.294 36.3333 12.4376C36.3333 11.5812 36.6735 10.7598 37.2791 10.1542C37.8847 9.54863 38.706 9.20842 39.5625 9.20842ZM26 13.0834C29.4257 13.0834 32.7111 14.4443 35.1334 16.8666C37.5558 19.289 38.9166 22.5744 38.9166 26.0001C38.9166 29.4258 37.5558 32.7112 35.1334 35.1335C32.7111 37.5559 29.4257 38.9168 26 38.9168C22.5742 38.9168 19.2888 37.5559 16.8665 35.1335C14.4442 32.7112 13.0833 29.4258 13.0833 26.0001C13.0833 22.5744 14.4442 19.289 16.8665 16.8666C19.2888 14.4443 22.5742 13.0834 26 13.0834ZM26 18.2501C23.9445 18.2501 21.9733 19.0666 20.5199 20.52C19.0665 21.9734 18.25 23.9447 18.25 26.0001C18.25 28.0555 19.0665 30.0268 20.5199 31.4802C21.9733 32.9336 23.9445 33.7501 26 33.7501C28.0554 33.7501 30.0266 32.9336 31.48 31.4802C32.9334 30.0268 33.75 28.0555 33.75 26.0001C33.75 23.9447 32.9334 21.9734 31.48 20.52C30.0266 19.0666 28.0554 18.2501 26 18.2501Z" fill="#132E34"/>
</svg>
