<?xml version='1.0' encoding='utf-8'?>
<svg xmlns="http://www.w3.org/2000/svg" version="1.0" width="64" height="64" viewBox="0 0 1280.000000 676.000000" preserveAspectRatio="xMidYMid meet">
<g transform="rotate(180 640.0 338.0)"><metadata>
Created by potrace 1.15, written by Peter Selinger 2001-2017
</metadata>
<g transform="translate(0.000000,676.000000) scale(0.100000,-0.100000)" fill="#000000" stroke="none">
<path d="M5980 6735 c0 -19 -35 -41 -80 -50 -36 -7 -100 -49 -100 -65 0 -5 -5 -21 -10 -35 l-10 -26 -46 38 c-26 21 -62 52 -81 70 -29 28 -35 30 -40 15 -15 -41 -57 -83 -76 -78 -25 6 -77 -44 -77 -73 0 -12 -4 -21 -9 -21 -5 0 -15 -17 -21 -37 -21 -66 -28 -58 -23 24 l6 79 -34 14 c-19 7 -44 22 -56 33 -20 18 -23 18 -23 4 0 -9 -9 -26 -19 -36 -10 -10 -22 -28 -26 -40 -5 -16 -15 -21 -40 -21 -19 0 -37 4 -40 10 -4 6 -17 4 -35 -5 -43 -22 -68 -18 -102 15 -17 17 -31 30 -32 28 -1 -2 -7 -15 -15 -29 -7 -14 -29 -33 -48 -42 -34 -15 -38 -15 -64 4 l-28 20 -7 -38 c-9 -49 -30 -73 -66 -73 -15 0 -36 -5 -46 -11 -18 -11 -79 -3 -124 16 -14 5 -18 2 -18 -12 0 -30 -45 -66 -82 -67 -18 -1 -38 -8 -45 -16 -11 -13 -12 -12 -13 8 0 18 -6 22 -29 22 -26 0 -29 -4 -35 -40 -3 -23 -11 -49 -16 -58 -5 -9 -11 -29 -15 -44 -4 -21 -11 -28 -29 -28 -12 0 -26 3 -30 8 -12 12 -57 10 -120 -4 -33 -7 -63 -11 -68 -8 -12 7 -48 -25 -48 -42 0 -14 -37 -30 -58 -25 -8 1 -19 -3 -26 -9 -10 -7 -17 -6 -27 6 -12 14 -15 8 -26 -47 -6 -35 -12 -82 -13 -104 -1 -65 -9 -70 -67 -40 -28 14 -55 25 -61 25 -5 0 -35 -14 -67 -31 -49 -26 -62 -29 -82 -20 -31 14 -43 14 -43 -1 0 -7 -6 -25 -14 -39 -11 -23 -11 -35 3 -87 20 -80 10 -93 -51 -65 -56 27 -68 21 -68 -36 l0 -46 -19 31 c-28 46 -46 54 -37 18 17 -76 19 -107 6 -102 -7 2 -20 22 -29 45 -21 53 -36 70 -69 75 -15 3 -34 7 -42 9 -10 3 -16 -4 -18 -21 -6 -54 98 -175 394 -457 93 -88 290 -284 439 -434 148 -151 299 -303 335 -339 86 -85 180 -204 180 -228 0 -13 -7 -18 -22 -18 -19 1 -24 -5 -26 -32 -3 -26 -12 -38 -44 -58 -34 -22 -41 -23 -51 -11 -9 11 -86 37 -110 37 -3 0 -8 -10 -11 -22 -3 -13 -25 -35 -47 -49 -37 -23 -45 -25 -90 -16 -45 9 -50 8 -69 -14 -10 -13 -19 -39 -20 -58 0 -27 -3 -31 -14 -22 -10 9 -16 8 -26 -4 -7 -8 -27 -15 -45 -15 -25 0 -34 -5 -39 -22 -6 -22 -7 -22 -21 -4 -12 16 -17 17 -30 6 -8 -7 -15 -23 -15 -35 0 -18 -4 -22 -20 -18 -14 4 -21 -1 -25 -20 -5 -20 -14 -26 -51 -31 -35 -4 -51 -14 -81 -47 -21 -23 -44 -61 -51 -85 -11 -39 -16 -44 -43 -44 -17 0 -32 -6 -35 -15 -8 -19 -44 -19 -70 0 -31 23 -40 18 -62 -33 -30 -69 -48 -83 -97 -72 -52 12 -68 1 -104 -70 -27 -53 -31 -71 -31 -145 0 -47 -2 -85 -5 -85 -3 0 -24 13 -47 30 -70 51 -157 33 -158 -32 -1 -21 -2 -21 -16 6 -22 39 -34 22 -41 -53 l-6 -61 -46 0 c-77 0 -110 -25 -159 -121 -39 -75 -43 -89 -38 -133 3 -27 2 -45 -2 -40 -5 5 -21 26 -36 47 -26 36 -30 38 -45 23 -13 -13 -16 -38 -16 -118 l-1 -101 -34 -18 c-19 -10 -43 -21 -52 -25 -11 -4 -18 -17 -18 -33 0 -15 -7 -37 -16 -49 -15 -22 -21 -23 -78 -17 -55 6 -67 4 -115 -22 -40 -21 -62 -41 -81 -73 l-26 -45 -70 -2 c-81 -3 -126 -20 -201 -78 -33 -26 -52 -49 -55 -65 -3 -25 -3 -25 -98 -22 -122 5 -202 -14 -305 -71 -72 -39 -81 -47 -85 -78 -5 -33 -7 -34 -55 -37 -27 -2 -111 4 -185 13 -74 9 -155 15 -180 13 -38 -2 -46 -7 -48 -26 -4 -25 -17 -29 -26 -7 -15 41 -226 -32 -226 -79 0 -41 105 -92 380 -183 227 -76 264 -92 268 -116 3 -14 -4 -17 -41 -17 -42 0 -82 6 -352 51 -200 34 -344 49 -461 49 -118 0 -261 -23 -279 -45 -5 -7 -19 -15 -29 -17 -10 -1 -24 -11 -30 -20 -14 -23 14 -53 87 -89 129 -66 315 -116 772 -208 306 -62 325 -67 325 -88 0 -17 -16 -17 -280 7 -276 25 -344 30 -495 36 -196 8 -356 -8 -385 -38 -11 -13 -20 -16 -25 -9 -10 17 -35 13 -42 -6 -12 -34 -24 -43 -43 -33 -25 13 -59 -24 -44 -48 26 -41 215 -108 414 -146 69 -14 258 -41 420 -61 162 -21 299 -41 305 -47 24 -22 -36 -28 -322 -28 -190 0 -329 -4 -373 -12 -64 -11 -70 -14 -70 -36 0 -19 -4 -23 -17 -17 -26 11 -64 7 -89 -10 -13 -8 -32 -15 -43 -15 -11 0 -33 -11 -48 -25 l-28 -25 23 -18 c96 -75 440 -148 790 -168 106 -6 122 -9 122 -24 0 -15 -15 -18 -117 -23 -65 -3 -139 -11 -165 -17 -45 -12 -48 -14 -48 -46 0 -43 -12 -49 -40 -19 -29 31 -56 32 -71 3 -10 -18 -8 -24 12 -39 31 -24 156 -77 239 -101 175 -50 186 -51 580 -54 220 -2 376 -7 378 -12 1 -5 -27 -17 -64 -26 -109 -28 -234 -90 -234 -118 0 -18 114 -57 212 -74 164 -27 357 -7 608 62 241 67 338 98 462 150 73 31 177 73 232 95 99 40 231 102 253 121 7 5 56 14 110 19 107 9 186 28 224 51 13 9 55 25 93 37 115 37 305 146 415 239 80 68 407 285 496 330 17 8 80 43 141 78 275 155 614 302 838 363 48 13 55 8 98 -68 18 -31 80 -119 138 -196 59 -77 122 -165 142 -196 19 -30 61 -84 92 -118 51 -58 56 -67 56 -111 0 -29 -5 -50 -12 -53 -23 -10 14 -27 57 -27 51 0 84 21 163 100 121 122 152 227 152 515 0 244 16 314 88 389 59 61 129 93 325 150 276 80 503 126 962 196 604 91 862 109 1170 80 77 -7 178 -13 225 -12 167 3 460 71 592 138 37 19 64 24 120 24 40 0 127 5 193 11 66 5 155 12 198 14 351 17 947 159 1224 290 90 42 227 127 287 177 93 78 -97 61 -667 -58 -70 -15 -130 -24 -134 -20 -18 18 44 46 311 143 68 25 305 128 491 216 212 99 382 195 520 294 114 81 255 208 255 229 0 19 -84 19 -103 0 -10 -10 -18 -11 -24 -5 -20 20 -233 -30 -358 -83 -38 -16 -130 -52 -203 -79 -160 -59 -445 -181 -597 -254 -140 -68 -155 -73 -155 -46 0 35 46 76 147 131 594 325 924 522 1113 664 107 80 259 222 280 262 13 24 13 27 -5 40 -18 13 -22 13 -36 -5 -14 -17 -18 -18 -23 -6 -4 12 -17 14 -63 9 -32 -4 -63 -10 -69 -15 -5 -4 -19 -6 -31 -3 -34 9 -187 -57 -501 -217 -287 -146 -531 -283 -629 -352 -26 -19 -69 -47 -95 -62 -45 -25 -48 -26 -48 -7 0 10 10 34 23 53 24 35 45 52 443 356 293 223 407 317 528 438 108 108 188 218 162 223 -9 2 -16 14 -16 28 0 17 -6 24 -20 24 -50 0 -222 -51 -295 -88 -102 -51 -447 -289 -700 -482 -55 -42 -121 -91 -147 -109 -48 -32 -48 -32 -48 -8 0 59 52 125 280 362 127 130 269 285 316 344 127 158 187 299 135 316 -35 11 -111 -13 -111 -36 0 -6 -9 -8 -21 -4 -35 11 -180 -69 -274 -152 -46 -39 -143 -127 -216 -195 -74 -68 -176 -159 -226 -202 -84 -70 -93 -75 -93 -53 0 36 43 112 164 291 100 147 186 301 186 333 0 7 -9 22 -20 33 -38 38 -145 20 -156 -27 -6 -21 -8 -22 -18 -7 -24 32 -102 -22 -113 -78 -5 -28 -7 -29 -19 -14 -11 16 -21 11 -104 -58 -140 -117 -134 -114 -170 -76 l-30 32 -108 -7 c-61 -4 -111 -12 -117 -18 -5 -7 -20 -11 -32 -9 -24 4 -105 -35 -166 -79 -42 -31 -66 -36 -84 -18 -6 6 -53 11 -104 12 -107 1 -184 -17 -238 -58 -44 -32 -53 -32 -88 5 -32 34 -60 37 -159 19 -41 -7 -72 -21 -103 -45 -51 -39 -69 -42 -104 -14 -17 14 -40 20 -75 20 -66 0 -99 -13 -144 -58 -29 -27 -38 -32 -38 -19 0 29 -50 120 -89 160 -49 52 -81 67 -143 67 -40 0 -67 7 -108 30 -63 33 -100 36 -179 14 l-56 -15 -78 40 c-43 23 -87 41 -97 41 -11 0 -44 -12 -75 -26 -61 -29 -87 -28 -145 10 -68 44 -117 41 -172 -11 -29 -28 -55 -27 -136 8 -40 18 -47 18 -91 3 -26 -8 -60 -23 -76 -34 -27 -18 -30 -18 -64 -1 -20 10 -66 24 -103 31 -65 12 -68 11 -124 -16 l-57 -28 -81 17 c-105 22 -107 22 -172 -10 -52 -25 -56 -26 -124 -14 -75 14 -72 15 -146 -41 -51 -38 -52 -39 -92 -25 -39 14 -43 13 -79 -11 -21 -14 -46 -36 -56 -49 -22 -27 -37 -29 -77 -8 -27 14 -33 14 -60 0 -32 -17 -50 -49 -50 -91 0 -31 -27 -32 -64 -3 l-27 21 -25 -25 c-23 -23 -25 -33 -23 -93 2 -63 1 -68 -25 -87 l-28 -20 -35 39 -34 39 5 140 c14 340 98 992 205 1580 11 61 26 174 32 252 11 128 11 144 -4 167 -9 14 -17 33 -18 43 0 17 -1 17 -11 1 -11 -14 -14 -14 -31 8 -18 24 -19 24 -48 7 -29 -17 -30 -20 -24 -68 6 -49 5 -50 -12 -29 -10 11 -25 30 -33 42 -13 19 -18 20 -39 9 -27 -13 -31 -21 -58 -89 -10 -27 -21 -48 -24 -48 -3 0 -11 24 -18 53 -14 65 -43 114 -76 129 -14 6 -25 15 -25 20 0 4 -4 8 -10 8 -5 0 -10 -7 -10 -15z" fill="orange" stroke="black" stroke-width="1" vector-effect="non-scaling-stroke"/>
</g>
</g></svg>
