<?xml version="1.0" standalone="no"?>
<!DOCTYPE svg PUBLIC "-//W3C//DTD SVG 20010904//EN"
 "http://www.w3.org/TR/2001/REC-SVG-20010904/DTD/svg10.dtd">
<svg version="1.0" xmlns="http://www.w3.org/2000/svg"
 width="1280.000000pt" height="1280.000000pt" viewBox="0 0 1280.000000 1280.000000"
 preserveAspectRatio="xMidYMid meet">
<metadata>
Created by potrace 1.15, written by Peter Selinger 2001-2017
</metadata>
<g transform="translate(0.000000,1280.000000) scale(0.100000,-0.100000)"
fill="#ff9800" stroke="none">
<path d="M2479 12009 c-87 -13 -312 -66 -397 -95 -284 -94 -596 -324 -786
-578 -177 -236 -246 -384 -311 -666 -19 -80 -39 -189 -44 -242 -15 -133 -15
-7896 -1 -8022 24 -209 99 -472 179 -630 105 -206 294 -437 466 -571 230 -179
389 -258 654 -325 258 -65 -91 -60 4296 -60 4372 0 4031 -5 4290 59 230 57
372 121 569 259 234 164 428 390 556 647 92 185 158 422 180 647 7 69 10 1412
7 4058 -3 3717 -4 3960 -20 4040 -73 350 -141 521 -304 752 -104 149 -224 273
-364 377 -217 163 -371 237 -609 297 -279 69 80 64 -4320 63 -2192 -1 -4010
-5 -4041 -10z m7354 -1429 c260 -30 537 -213 677 -448 57 -97 107 -225 120
-307 7 -49 10 -1075 8 -3425 l-3 -3355 -29 -75 c-102 -269 -258 -450 -481
-560 -123 -60 -177 -78 -274 -91 -50 -6 -1237 -9 -3401 -7 l-3325 3 -104 37
c-304 109 -510 316 -618 623 l-28 80 0 3390 0 3390 23 70 c57 169 135 295 254
411 91 89 164 140 272 189 101 45 166 65 244 75 103 12 6560 12 6665 0z"/>
<path d="M8860 9807 c-197 -118 -309 -191 -318 -207 -14 -24 -8 -39 111 -280
392 -793 620 -1580 704 -2430 32 -330 23 -863 -23 -1265 -86 -762 -318 -1610
-624 -2287 -66 -145 -72 -178 -37 -203 53 -39 625 -327 649 -328 42 -1 57 19
118 148 324 684 593 1632 699 2465 54 417 76 991 52 1350 -58 870 -272 1735
-641 2585 -72 166 -277 570 -307 606 -16 19 -34 29 -51 29 -17 0 -142 -69
-332 -183z"/>
<path d="M5574 9307 c-12 -7 -159 -140 -325 -297 -167 -158 -493 -463 -724
-680 -231 -217 -486 -456 -567 -532 l-147 -138 -585 0 c-634 0 -608 2 -621
-53 -3 -12 -4 -617 -3 -1344 3 -1254 4 -1323 21 -1340 16 -17 58 -18 586 -23
l569 -5 493 -451 c272 -249 676 -619 899 -823 349 -320 409 -371 436 -371 17
0 38 8 47 18 16 18 91 311 151 592 212 996 309 1949 278 2722 -33 816 -149
1607 -368 2510 -39 160 -49 191 -71 208 -29 23 -40 24 -69 7z"/>
<path d="M7779 8902 c-163 -97 -303 -183 -313 -191 -27 -22 -19 -70 28 -155
63 -118 155 -320 218 -481 330 -838 422 -1644 287 -2500 -79 -496 -228 -1006
-423 -1444 -25 -57 -46 -113 -46 -126 0 -12 10 -31 23 -42 39 -35 627 -333
657 -333 40 0 58 26 133 198 256 582 437 1267 513 1942 21 196 30 742 15 937
-61 759 -307 1600 -656 2243 -61 114 -76 130 -114 130 -16 0 -145 -71 -322
-178z"/>
<path d="M7037 8165 c-74 -38 -575 -340 -594 -358 -31 -28 -29 -49 16 -136
138 -271 249 -605 303 -916 20 -114 22 -165 23 -415 0 -224 -4 -311 -18 -405
-50 -331 -129 -613 -254 -908 -63 -148 -66 -142 117 -237 510 -264 504 -262
533 -255 37 10 49 30 119 198 159 379 270 815 320 1252 19 168 16 571 -6 740
-56 440 -184 867 -378 1264 -93 189 -115 211 -181 176z"/>
</g>
</svg>
